<svg width="128" height="128" viewBox="0 0 128 128" fill="none" xmlns="http://www.w3.org/2000/svg">
<rect width="128" height="128" rx="64" fill="white"/>
<path d="M94 34H34C29.8579 34 26.5 37.3579 26.5 41.5V86.5C26.5 90.6421 29.8579 94 34 94H94C98.1421 94 101.5 90.6421 101.5 86.5V41.5C101.5 37.3579 98.1421 34 94 34Z" stroke="#171717" stroke-width="6" stroke-linecap="round" stroke-linejoin="round"/>
<path d="M49 64C53.1421 64 56.5 60.6421 56.5 56.5C56.5 52.3579 53.1421 49 49 49C44.8579 49 41.5 52.3579 41.5 56.5C41.5 60.6421 44.8579 64 49 64Z" stroke="#171717" stroke-width="6" stroke-linecap="round" stroke-linejoin="round"/>
<path d="M49 64H79" stroke="#171717" stroke-width="6" stroke-linecap="round" stroke-linejoin="round"/>
<path d="M79 64C83.1421 64 86.5 60.6421 86.5 56.5C86.5 52.3579 83.1421 49 79 49C74.8579 49 71.5 52.3579 71.5 56.5C71.5 60.6421 74.8579 64 79 64Z" stroke="#171717" stroke-width="6" stroke-linecap="round" stroke-linejoin="round"/>
<path d="M41.5 94L44.125 83.125C44.3857 81.9351 45.052 80.873 46.0098 80.1204C46.9676 79.3679 48.1573 78.9718 49.375 79H78.625C79.7926 78.9516 80.943 79.2941 81.894 79.9734C82.845 80.6526 83.5421 81.6298 83.875 82.75L86.5 94" stroke="#171717" stroke-width="6" stroke-linecap="round" stroke-linejoin="round"/>
</svg>
