<svg width="400" height="400" viewBox="0 0 400 400" fill="none" xmlns="http://www.w3.org/2000/svg">
  <g clip-path="url(#clip0_2_35)">
    <rect width="400" height="400" rx="8" fill="#F5F5F5"/>
    <path d="M117.107 232.214C149.199 232.214 175.214 206.199 175.214 174.107C175.214 142.015 149.199 116 117.107 116C85.0154 116 59 142.015 59 174.107C59 206.199 85.0154 232.214 117.107 232.214Z" fill="#E5E5E5"/>
    <path d="M341.018 276.714L272.809 158.573C272.382 157.834 271.769 157.221 271.031 156.795C270.292 156.369 269.455 156.144 268.602 156.144C267.75 156.144 266.912 156.369 266.173 156.795C265.435 157.221 264.822 157.834 264.396 158.573L222.77 230.671L160.714 123.187C160.168 122.24 159.382 121.454 158.435 120.908C157.488 120.361 156.414 120.073 155.321 120.073C154.228 120.073 153.154 120.361 152.207 120.908C151.26 121.454 150.474 122.24 149.927 123.187L62.4755 274.658C61.9289 275.605 61.6411 276.679 61.6411 277.772C61.6411 278.865 61.9289 279.939 62.4755 280.886C63.0221 281.833 63.8083 282.619 64.755 283.166C65.7017 283.712 66.7757 284 67.8689 284H336.811C337.664 284 338.501 283.776 339.24 283.349C339.978 282.923 340.591 282.31 341.018 281.571C341.444 280.833 341.668 279.995 341.668 279.143C341.668 278.29 341.444 277.452 341.018 276.714Z" fill="#A1A1A1"/>
  </g>
  <defs>
    <clipPath id="clip0_2_35">
      <rect width="400" height="400" fill="white"/>
    </clipPath>
  </defs>
</svg>
